<svg width="33" height="28" viewBox="0 0 33 28" fill="none" xmlns="http://www.w3.org/2000/svg">
<path d="M27 16.4563C26.8505 14.7064 26.6866 12.9523 26.4413 11.2122C26.2756 10.0364 26.0766 8.99658 25.4693 7.96687C24.7657 6.77397 23.8374 5.79771 22.7207 4.9526C20.5072 3.27741 17.3763 2.8257 14.6425 3.05592C7.65872 3.64403 4.66804 11.8398 6.5532 17.6061C7.30964 19.9199 8.72812 22.3805 11.1342 23.409C12.4834 23.9857 14.0477 24.0185 15.4973 23.9946C17.5451 23.961 19.3152 23.4684 21.0336 22.3881C24.2379 20.3736 26.4778 17.148 26.838 13.4527C26.9542 12.2603 27.0418 10.8975 26.6425 9.74535C26.4134 9.08431 26.0211 8.50597 25.7933 7.84867" stroke="#E02E2E" stroke-linecap="round"/>
</svg>
