<svg width="100" height="100" viewBox="0 0 100 100" fill="none" xmlns="http://www.w3.org/2000/svg">
<mask id="path-1-outside-1_1498_958" maskUnits="userSpaceOnUse" x="2" y="30.6016" width="61" height="61" fill="black">
<rect fill="white" x="2" y="30.6016" width="61" height="61"/>
<path d="M59.8779 61.0405C59.8779 76.1946 47.5931 88.4795 32.439 88.4795C17.2848 88.4795 5 76.1946 5 61.0405C5 45.8864 17.2848 33.6016 32.439 33.6016C47.5931 33.6016 59.8779 45.8864 59.8779 61.0405ZM7.71864 61.0405C7.71864 74.6932 18.7863 85.7609 32.439 85.7609C46.0916 85.7609 57.1593 74.6932 57.1593 61.0405C57.1593 47.3879 46.0916 36.3202 32.439 36.3202C18.7863 36.3202 7.71864 47.3879 7.71864 61.0405Z"/>
</mask>
<path d="M59.8779 61.0405C59.8779 76.1946 47.5931 88.4795 32.439 88.4795C17.2848 88.4795 5 76.1946 5 61.0405C5 45.8864 17.2848 33.6016 32.439 33.6016C47.5931 33.6016 59.8779 45.8864 59.8779 61.0405ZM7.71864 61.0405C7.71864 74.6932 18.7863 85.7609 32.439 85.7609C46.0916 85.7609 57.1593 74.6932 57.1593 61.0405C57.1593 47.3879 46.0916 36.3202 32.439 36.3202C18.7863 36.3202 7.71864 47.3879 7.71864 61.0405Z" fill="white"/>
<path d="M59.8779 61.0405C59.8779 76.1946 47.5931 88.4795 32.439 88.4795C17.2848 88.4795 5 76.1946 5 61.0405C5 45.8864 17.2848 33.6016 32.439 33.6016C47.5931 33.6016 59.8779 45.8864 59.8779 61.0405ZM7.71864 61.0405C7.71864 74.6932 18.7863 85.7609 32.439 85.7609C46.0916 85.7609 57.1593 74.6932 57.1593 61.0405C57.1593 47.3879 46.0916 36.3202 32.439 36.3202C18.7863 36.3202 7.71864 47.3879 7.71864 61.0405Z" stroke="#161616" stroke-width="4.39023" mask="url(#path-1-outside-1_1498_958)"/>
<mask id="path-2-outside-2_1498_958" maskUnits="userSpaceOnUse" x="37.1221" y="7.55469" width="61" height="61" fill="black">
<rect fill="white" x="37.1221" y="7.55469" width="61" height="61"/>
<path d="M95 37.9937C95 53.1478 82.7152 65.4326 67.561 65.4326C52.4069 65.4326 40.1221 53.1478 40.1221 37.9937C40.1221 22.8395 52.4069 10.5547 67.561 10.5547C82.7152 10.5547 95 22.8395 95 37.9937ZM42.8407 37.9937C42.8407 51.6463 53.9084 62.714 67.561 62.714C81.2137 62.714 92.2814 51.6463 92.2814 37.9937C92.2814 24.341 81.2137 13.2733 67.561 13.2733C53.9084 13.2733 42.8407 24.341 42.8407 37.9937Z"/>
</mask>
<path d="M95 37.9937C95 53.1478 82.7152 65.4326 67.561 65.4326C52.4069 65.4326 40.1221 53.1478 40.1221 37.9937C40.1221 22.8395 52.4069 10.5547 67.561 10.5547C82.7152 10.5547 95 22.8395 95 37.9937ZM42.8407 37.9937C42.8407 51.6463 53.9084 62.714 67.561 62.714C81.2137 62.714 92.2814 51.6463 92.2814 37.9937C92.2814 24.341 81.2137 13.2733 67.561 13.2733C53.9084 13.2733 42.8407 24.341 42.8407 37.9937Z" fill="white"/>
<path d="M95 37.9937C95 53.1478 82.7152 65.4326 67.561 65.4326C52.4069 65.4326 40.1221 53.1478 40.1221 37.9937C40.1221 22.8395 52.4069 10.5547 67.561 10.5547C82.7152 10.5547 95 22.8395 95 37.9937ZM42.8407 37.9937C42.8407 51.6463 53.9084 62.714 67.561 62.714C81.2137 62.714 92.2814 51.6463 92.2814 37.9937C92.2814 24.341 81.2137 13.2733 67.561 13.2733C53.9084 13.2733 42.8407 24.341 42.8407 37.9937Z" stroke="#161616" stroke-width="4.39023" mask="url(#path-2-outside-2_1498_958)"/>
<mask id="path-3-outside-3_1498_958" maskUnits="userSpaceOnUse" x="21" y="30.6016" width="39" height="22" fill="black">
<rect fill="white" x="21" y="30.6016" width="39" height="22"/>
<path d="M56.2579 47.4186C53.1484 41.9816 48.2725 37.7719 42.4399 35.4891C36.6074 33.2062 30.1694 32.9874 24.1954 34.8692L25.0122 37.4622C30.3943 35.7669 36.1944 35.964 41.4491 38.0207C46.7037 40.0774 51.0965 43.8699 53.8979 48.7682L56.2579 47.4186Z"/>
</mask>
<path d="M56.2579 47.4186C53.1484 41.9816 48.2725 37.7719 42.4399 35.4891C36.6074 33.2062 30.1694 32.9874 24.1954 34.8692L25.0122 37.4622C30.3943 35.7669 36.1944 35.964 41.4491 38.0207C46.7037 40.0774 51.0965 43.8699 53.8979 48.7682L56.2579 47.4186Z" fill="white"/>
<path d="M56.2579 47.4186C53.1484 41.9816 48.2725 37.7719 42.4399 35.4891C36.6074 33.2062 30.1694 32.9874 24.1954 34.8692L25.0122 37.4622C30.3943 35.7669 36.1944 35.964 41.4491 38.0207C46.7037 40.0774 51.0965 43.8699 53.8979 48.7682L56.2579 47.4186Z" stroke="#161616" stroke-width="4.39023" mask="url(#path-3-outside-3_1498_958)"/>
<path d="M58.8367 53.5536C57.7397 49.6856 55.8061 46.106 53.1726 43.0679C50.5391 40.0299 47.2702 37.6077 43.5971 35.9728C39.924 34.3378 35.9364 33.53 31.9166 33.6065C27.8968 33.6831 23.9429 34.6421 20.3347 36.4157L21.534 38.8555C24.7847 37.2576 28.3468 36.3936 31.9684 36.3247C35.5899 36.2557 39.1824 36.9835 42.4915 38.4565C45.8007 39.9294 48.7458 42.1116 51.1183 44.8487C53.4909 47.5857 55.2329 50.8107 56.2213 54.2954L58.8367 53.5536Z" fill="white"/>
</svg>
